HIERARCHY
ROOT Hips
{
	OFFSET -0.001795 -0.223333 0.028219
	CHANNELS 6 Xposition Yposition Zposition Zrotation Yrotation Xrotation 
	JOINT LeftUpLeg
	{
		OFFSET 0.069520 -0.091406 -0.006815
		CHANNELS 3 Zrotation Yrotation Xrotation
		JOINT LeftLeg
		{
			OFFSET 0.034277 -0.375199 -0.004496
			CHANNELS 3 Zrotation Yrotation Xrotation
			JOINT LeftFoot
			{
				OFFSET -0.013596 -0.397961 -0.043693
				CHANNELS 3 Zrotation Yrotation Xrotation
				JOINT LeftToe
				{
					OFFSET 0.026358 -0.055791 0.119288
					CHANNELS 3 Zrotation Yrotation Xrotation
					End Site
					{
						OFFSET 0.000000 0.000000 0.000000
					}
				}
			}
		}
	}
	JOINT RightUpLeg
	{
		OFFSET -0.067670 -0.090522 -0.004320
		CHANNELS 3 Zrotation Yrotation Xrotation
		JOINT RightLeg
		{
			OFFSET -0.038290 -0.382569 -0.008850
			CHANNELS 3 Zrotation Yrotation Xrotation
			JOINT RightFoot
			{
				OFFSET 0.015774 -0.398415 -0.042312
				CHANNELS 3 Zrotation Yrotation Xrotation
				JOINT RightToe
				{
					OFFSET -0.025372 -0.048144 0.123348
					CHANNELS 3 Zrotation Yrotation Xrotation
					End Site
					{
						OFFSET 0.000000 0.000000 0.000000
					}
				}
			}
		}
	}
	JOINT Spine
	{
		OFFSET -0.002533 0.108963 -0.026696
		CHANNELS 3 Zrotation Yrotation Xrotation
		JOINT Spine1
		{
			OFFSET 0.005487 0.135180 0.001092
			CHANNELS 3 Zrotation Yrotation Xrotation
			JOINT Spine2
			{
				OFFSET 0.001457 0.052922 0.025425
				CHANNELS 3 Zrotation Yrotation Xrotation
				JOINT Neck
				{
					OFFSET -0.002778 0.213870 -0.042857
					CHANNELS 3 Zrotation Yrotation Xrotation
					JOINT Head
					{
						OFFSET 0.005152 0.064970 0.051349
						CHANNELS 3 Zrotation Yrotation Xrotation
						End Site
						{
							OFFSET 0.000000 0.000000 0.000000
						}
					}
				}
				JOINT LeftShoulder
				{
					OFFSET 0.078845 0.121749 -0.034090
					CHANNELS 3 Zrotation Yrotation Xrotation
					JOINT LeftArm
					{
						OFFSET 0.090977 0.030469 -0.008868
						CHANNELS 3 Zrotation Yrotation Xrotation
						JOINT LeftForeArm
						{
							OFFSET 0.259612 -0.012772 -0.027456
							CHANNELS 3 Zrotation Yrotation Xrotation
							JOINT LeftHand
							{
								OFFSET 0.249234 0.008986 -0.001171
								CHANNELS 3 Zrotation Yrotation Xrotation
								End Site
								{
									OFFSET 0.000000 0.000000 0.000000
								}
							}
						}
					}
				}
				JOINT RightShoulder
				{
					OFFSET -0.081759 0.118833 -0.038615
					CHANNELS 3 Zrotation Yrotation Xrotation
					JOINT RightArm
					{
						OFFSET -0.096012 0.032551 -0.009143
						CHANNELS 3 Zrotation Yrotation Xrotation
						JOINT RightForeArm
						{
							OFFSET -0.253742 -0.013329 -0.021401
							CHANNELS 3 Zrotation Yrotation Xrotation
							JOINT RightHand
							{
								OFFSET -0.255298 0.007772 -0.005559
								CHANNELS 3 Zrotation Yrotation Xrotation
								End Site
								{
									OFFSET 0.000000 0.000000 0.000000
								}
							}
						}
					}
				}
			}
		}
	}
}
MOTION
Frames: 18
Frame Time: 0.050000
0.050571 1.613243 0.047363 0.458781 10.119940 1.069089 -1.351964 -0.375797 -4.158816 0.055015 -0.441431 8.915377 -3.741611 8.151482 34.941638 0.000000 0.000000 0.000000 -3.923074 0.440826 -6.883075 0.275943 0.180196 17.091809 7.493696 -0.075475 38.217282 0.000000 0.000000 0.000000 -2.483542 -0.099525 5.808966 -0.579700 -0.473292 9.193482 2.124172 1.117823 -15.824198 -0.910293 -2.063243 20.784024 0.000000 0.000000 0.000000 -15.459951 5.952222 -5.539560 -16.314732 28.110970 -3.997237 -47.659706 -15.991379 7.371917 0.000000 0.000000 0.000000 12.647934 -9.355630 -5.321722 29.474849 -24.472259 -6.671954 34.564142 17.825252 5.736602 0.000000 0.000000 0.000000 
0.049902 1.557829 0.042362 0.194931 9.160127 0.763363 -0.561372 -0.649999 -6.907783 0.682400 -0.531994 8.808110 -4.712843 8.108802 39.622320 0.000000 0.000000 0.000000 -4.885647 0.440014 -7.989779 1.673606 -0.151373 15.823039 5.909383 -1.910565 37.388157 0.000000 0.000000 0.000000 -2.579222 -0.118753 6.726725 1.308444 -1.343359 7.560343 0.997837 1.641662 -12.140804 0.229341 -3.289154 19.989534 0.000000 0.000000 0.000000 -15.228976 5.248689 -5.252804 -17.865684 28.623244 -4.667678 -47.816232 -18.975852 8.665364 0.000000 0.000000 0.000000 8.707542 -7.058819 -3.572522 33.701425 -21.742554 -7.359930 35.928562 19.707540 6.760323 0.000000 0.000000 0.000000 
0.049536 1.467073 0.041873 -0.757369 7.798650 0.121046 0.758243 -0.635062 -7.230374 2.198317 -0.547376 5.430991 -7.690779 7.204262 48.598937 0.000000 0.000000 0.000000 -5.664844 0.385449 -7.602228 1.804063 -0.112084 10.946663 5.859582 -2.690131 38.934634 0.000000 0.000000 0.000000 -1.221387 -0.283789 8.645338 0.375265 -0.713352 7.176603 2.304656 1.862982 -11.903367 2.794329 -5.524031 18.810901 0.000000 0.000000 0.000000 -11.402412 1.197759 -2.526170 -23.651986 29.467781 -6.758331 -45.141188 -19.630549 8.465119 0.000000 0.000000 0.000000 8.003598 -5.752208 -2.977473 35.086845 -18.642086 -6.989926 33.381151 22.993967 7.394753 0.000000 0.000000 0.000000 
0.048618 1.341180 0.047300 -1.978276 6.624425 -0.580938 2.612941 -0.523659 -6.734868 2.186290 -0.540911 5.379703 -8.529144 7.593431 54.285529 0.000000 0.000000 0.000000 -5.004033 0.506815 -8.915522 2.170107 -0.165758 10.228589 8.008889 -2.029416 43.709479 0.000000 0.000000 0.000000 -0.511768 -0.305459 7.882974 3.238218 -2.780088 11.505155 1.445436 2.041796 -15.131409 0.303995 -2.009695 12.695958 0.000000 0.000000 0.000000 -13.105991 5.761141 -4.836529 -19.580054 29.221052 -5.253262 -45.560861 -17.452194 7.631441 0.000000 0.000000 0.000000 8.595584 -2.085517 -1.569478 36.079595 -15.043535 -6.102792 31.697119 24.676153 7.545982 0.000000 0.000000 0.000000 
0.046393 1.178372 0.053770 -2.135948 7.125757 -0.520538 2.214401 -0.495018 -6.159709 3.177277 -1.224119 11.964930 -7.769804 6.723347 47.326067 0.000000 0.000000 0.000000 -2.921632 0.808386 -11.327032 1.095550 0.082299 17.279147 7.515888 -1.729026 41.359770 0.000000 0.000000 0.000000 0.721443 -0.297188 6.044860 2.959091 -3.113102 15.253610 0.570719 1.777314 -17.947933 1.523419 -2.961777 11.889742 0.000000 0.000000 0.000000 -10.245233 0.735956 -2.191444 -23.772455 34.257899 -7.449435 -43.001966 -16.899692 6.957867 0.000000 0.000000 0.000000 12.481895 -1.502302 -1.744749 35.601817 -14.977467 -5.839686 26.957474 27.017065 7.135674 0.000000 0.000000 0.000000 
0.043514 1.000838 0.051604 -1.513994 6.854323 -3.198756 1.814220 -0.519492 -6.424895 2.329527 -2.526937 27.618883 -2.841128 4.869835 22.308564 0.000000 0.000000 0.000000 0.004007 1.377362 -14.848476 -1.846903 1.219261 36.636471 2.377480 -1.697310 18.123884 0.000000 0.000000 0.000000 2.808061 -0.857319 12.019204 -0.832883 -0.420462 13.509529 3.465663 0.498116 -18.628746 0.565418 -0.391492 -0.388584 0.000000 0.000000 0.000000 -16.217793 2.552155 -3.757286 -22.685719 29.340619 -6.081815 -37.859916 -16.904013 6.308075 0.000000 0.000000 0.000000 16.469259 -1.865175 -2.863030 36.283052 -12.103944 -5.087313 23.625022 25.659351 5.696949 0.000000 0.000000 0.000000 
0.040316 0.856975 0.033703 0.273901 8.929495 -7.349603 -0.346599 -1.180138 -11.743971 0.021986 -4.855895 51.151063 5.289494 8.332850 -7.345331 0.000000 0.000000 0.000000 1.837864 1.961388 -19.070645 -3.896091 1.915556 59.066699 -4.503914 -10.222217 -5.895684 0.000000 0.000000 0.000000 2.609435 -2.138298 25.419606 0.253385 -0.281330 2.877285 1.883081 -0.382081 -14.045961 1.248125 -0.209292 -6.531717 0.000000 0.000000 0.000000 -24.159600 -0.186894 -3.823781 -21.677014 26.993075 -5.577364 -32.143752 -20.563611 6.583298 0.000000 0.000000 0.000000 26.166912 -0.998489 -3.231506 32.723100 -8.815043 -4.174156 18.322154 27.853995 5.069393 0.000000 0.000000 0.000000 
0.037901 0.777623 0.010785 0.492018 9.395668 -10.816935 -1.746554 -2.117373 -17.563986 -3.494663 -4.850909 67.762394 10.140561 19.240374 -17.235676 0.000000 0.000000 0.000000 5.319145 3.084797 -23.701016 -8.001917 5.527052 74.076244 -6.789133 -16.170026 -9.386652 0.000000 0.000000 0.000000 3.517615 -3.099763 31.420188 -1.004274 0.041405 8.564294 3.449197 -0.680794 -18.955584 0.797931 0.539771 -11.649372 0.000000 0.000000 0.000000 -27.470005 -2.308282 -2.833353 -26.948698 23.599972 -6.407284 -29.335064 -22.030716 6.487730 0.000000 0.000000 0.000000 29.679935 4.752755 -0.814966 32.484484 -6.673863 -3.158764 16.540410 31.652748 5.184737 0.000000 0.000000 0.000000 
0.035779 0.748985 -0.007168 0.853540 10.404843 -11.951268 -3.405282 -2.757783 -19.709473 -5.544808 -4.236430 73.912858 11.879009 25.140528 -21.309479 0.000000 0.000000 0.000000 4.018903 2.971748 -26.068228 -6.795356 4.223217 79.650115 -6.943618 -16.195230 -12.568656 0.000000 0.000000 0.000000 4.151677 -3.732434 34.041934 -0.766693 0.054050 6.334355 3.402145 -1.731061 -16.279951 -1.144684 1.745838 -14.112752 0.000000 0.000000 0.000000 -31.222672 -4.089076 -1.816516 -28.360577 19.522652 -6.142981 -30.881338 -28.341266 8.850627 0.000000 0.000000 0.000000 32.117549 6.126000 -0.177855 30.688240 -2.620065 -2.166110 21.950392 36.956859 7.890771 0.000000 0.000000 0.000000 
0.033306 0.757924 -0.020513 1.449071 9.113667 -11.010099 -3.426487 -2.924055 -20.947109 -6.644992 -2.257965 72.678189 11.516033 23.955889 -18.975291 0.000000 0.000000 0.000000 3.003606 2.822015 -26.250774 -6.016865 4.264793 76.829043 -6.254799 -12.917276 -17.348411 0.000000 0.000000 0.000000 4.252243 -3.658446 34.447257 -1.251291 0.481598 4.218492 3.344523 -2.340468 -14.994319 0.055762 1.102179 -14.744894 0.000000 0.000000 0.000000 -29.996297 -4.532026 -0.984485 -30.476426 18.759080 -6.643671 -38.454599 -36.777918 14.458984 0.000000 0.000000 0.000000 32.130716 7.813659 0.662196 30.345670 -0.177307 -1.572769 28.793067 42.283968 11.752016 0.000000 0.000000 0.000000 
0.030593 0.804599 -0.028982 1.379205 9.510999 -10.131731 -3.779086 -2.521230 -18.093379 -4.458273 -3.495669 64.085816 8.382413 14.647745 -13.909573 0.000000 0.000000 0.000000 1.037978 2.029199 -22.002792 -4.867464 2.666489 68.186110 -4.593207 -8.219528 -13.424908 0.000000 0.000000 0.000000 4.350741 -3.371298 31.927049 0.190291 -0.219370 2.742737 2.084592 -1.785568 -14.603220 0.662564 0.289587 -8.147281 0.000000 0.000000 0.000000 -28.359135 -4.481428 -1.393735 -28.948578 21.972140 -6.833217 -51.299329 -36.218107 19.007925 0.000000 0.000000 0.000000 31.304339 7.287467 0.989562 29.850359 -2.820696 -2.298123 41.596430 47.431756 19.557976 0.000000 0.000000 0.000000 
0.027919 0.874369 -0.035357 1.827665 6.403362 -8.084345 -3.111024 -1.972060 -15.556409 -3.367346 -2.011350 53.133295 4.215429 7.896240 -2.607032 0.000000 0.000000 0.000000 0.080855 1.658772 -18.038535 -4.667265 3.527872 55.864515 -2.493370 -4.628389 -4.917462 0.000000 0.000000 0.000000 3.112428 -2.110833 26.143495 0.300388 -0.526079 6.587416 1.330887 0.225006 -17.689194 0.303635 0.237542 -5.204347 0.000000 0.000000 0.000000 -25.688517 -0.469204 -3.899270 -26.335205 23.004496 -6.077891 -63.294534 -32.774703 21.565127 0.000000 0.000000 0.000000 27.949946 3.773672 -0.866245 32.532494 -3.824829 -2.592850 53.181986 46.409412 24.716448 0.000000 0.000000 0.000000 
0.025423 0.940304 -0.043087 1.738402 6.582792 -5.846935 -4.579604 -1.429468 -10.704601 -0.111023 -2.496457 37.882392 -0.546398 2.724935 7.849019 0.000000 0.000000 0.000000 -1.684248 1.180418 -15.224537 -5.274289 3.307793 44.359128 0.826689 -0.732631 6.398148 0.000000 0.000000 0.000000 2.776767 -1.524986 20.476306 -0.065754 -0.484210 8.728874 2.547913 -0.554983 -18.599721 0.607963 -0.203242 -2.284796 0.000000 0.000000 0.000000 -23.931187 -0.350292 -3.342991 -27.468078 25.361179 -6.841745 -67.378191 -33.218104 23.773366 0.000000 0.000000 0.000000 26.573771 1.143709 -2.775713 30.804202 -7.094410 -3.020822 61.390895 44.447281 27.514562 0.000000 0.000000 0.000000 
0.023492 0.977604 -0.052804 1.078391 5.770676 -5.477799 -4.946691 -0.717057 -5.532873 0.718115 -1.860352 28.112966 -2.893442 0.725118 12.425046 0.000000 0.000000 0.000000 -1.818335 1.139227 -14.596551 -8.219481 4.954048 43.199261 2.402135 -1.057779 15.520209 0.000000 0.000000 0.000000 3.239785 -1.275664 17.010084 -0.022167 -0.478862 8.628708 2.211384 -0.606775 -15.235246 -1.703560 1.215193 -0.615856 0.000000 0.000000 0.000000 -25.355658 1.443400 -4.445086 -26.702137 24.088371 -6.521738 -63.091454 -33.915257 22.516791 0.000000 0.000000 0.000000 26.803988 2.510655 -1.774421 32.175880 -8.583322 -3.761498 57.829272 45.323856 26.408385 0.000000 0.000000 0.000000 
0.022001 0.978316 -0.063866 0.483899 7.767963 -6.459000 -5.774668 -0.142891 -1.259834 1.732951 -1.983169 23.819434 -2.824922 0.551433 11.179964 0.000000 0.000000 0.000000 -2.212472 1.037817 -14.568031 -9.053092 5.297716 48.498501 4.264151 3.574725 13.021696 0.000000 0.000000 0.000000 2.720776 -1.189798 16.434007 0.933558 -1.338026 10.761058 1.898571 -1.845420 -15.426518 -0.615770 0.606864 -2.166913 0.000000 0.000000 0.000000 -26.382731 1.240114 -4.382149 -29.309825 21.902266 -6.820562 -53.707153 -35.084515 19.395275 0.000000 0.000000 0.000000 28.165972 0.433660 -3.408191 31.938479 -9.600655 -3.909594 53.170855 43.784899 23.028893 0.000000 0.000000 0.000000 
0.019984 0.963646 -0.075427 -0.057177 9.552451 -8.433136 -4.964202 0.245744 1.834862 1.866807 -1.809336 20.640212 -2.654663 -0.924368 7.326580 0.000000 0.000000 0.000000 -2.661341 0.918575 -14.469807 -9.156810 5.136809 53.760705 1.835071 0.777407 8.315157 0.000000 0.000000 0.000000 2.929705 -1.418160 18.195289 0.572171 -0.993912 8.762070 2.734290 -3.389859 -12.455353 0.643370 -0.097986 -3.710292 0.000000 0.000000 0.000000 -30.386874 0.501206 -4.061185 -31.214598 16.953041 -6.476164 -38.033995 -35.494489 13.783488 0.000000 0.000000 0.000000 30.145483 -0.899461 -4.771467 32.307375 -9.431323 -4.056995 39.897378 41.913505 16.110070 0.000000 0.000000 0.000000 
0.016494 0.956252 -0.085333 -0.338458 9.750594 -8.368987 -4.357885 0.261183 2.041271 2.197910 -1.685748 18.447773 -2.302344 -0.332078 7.176021 0.000000 0.000000 0.000000 -3.871194 0.698242 -13.518754 -10.164127 5.614448 52.204020 1.031455 -1.259210 9.410496 0.000000 0.000000 0.000000 3.127657 -1.389606 17.542386 1.153902 -1.729842 12.042829 2.109012 -3.660469 -15.734635 0.442692 0.131859 -4.628349 0.000000 0.000000 0.000000 -31.693553 0.311191 -4.172112 -35.340871 13.334017 -6.315357 -25.679748 -32.116622 8.462983 0.000000 0.000000 0.000000 30.132545 -1.906221 -5.666278 35.411680 -9.703030 -4.327627 26.752476 39.204264 9.970188 0.000000 0.000000 0.000000 
0.010158 0.962663 -0.092823 -0.515068 10.661419 -7.098960 -4.147088 0.290952 2.231675 3.032441 -1.459651 14.001195 -3.788548 -1.996440 8.717768 0.000000 0.000000 0.000000 -5.012204 0.394898 -9.759503 -9.163533 4.362791 44.909369 1.989692 -0.352887 12.967917 0.000000 0.000000 0.000000 3.179988 -1.204151 15.316917 0.564864 -1.448038 12.251115 4.119029 -4.820861 -16.231427 -1.029327 1.076849 -4.478916 0.000000 0.000000 0.000000 -33.962846 -0.035650 -3.539740 -37.764922 12.020480 -6.612336 -20.844581 -30.202509 6.663426 0.000000 0.000000 0.000000 28.076631 -2.267562 -6.042428 38.813368 -10.564252 -4.967195 19.559931 37.129675 6.822212 0.000000 0.000000 0.000000 
